<svg xmlns="http://www.w3.org/2000/svg" width="240.47" height="203.13" viewBox="0 0 240.47 203.13"><defs><style>.cls-1{fill:#fff;}.cls-2{fill:#8a181a;}</style></defs><g id="Layer_2" data-name="Layer 2"><g id="Layer_7" data-name="Layer 7"><path d="M75.16,25,44.36,38.76,44,39l0-.28-2.13,0c-.2,0-20.46-.74-38.13-20.62L0,20c.61,1.69,15,40.73,48,50.53l22.92,73L74.39,28A7.23,7.23,0,0,1,75.16,25ZM64.71,73.93a4.32,4.32,0,0,0,6.46,3l.15.49-9.91,4.43-.16-.49a6.15,6.15,0,0,0,3.16-3A6,6,0,0,0,64.49,74l0-.11a6.69,6.69,0,0,1-1,2.68,4.47,4.47,0,0,1-1.9,1.61,3.2,3.2,0,0,1-2.62.15,2.92,2.92,0,0,1-1.63-1.93,3.74,3.74,0,0,1,.12-2.68,3.52,3.52,0,0,1,1.85-1.87,3.38,3.38,0,0,1,.82-.25,3.52,3.52,0,0,1,.92,0,6.06,6.06,0,0,1-.87-.95,3.07,3.07,0,0,1-.46-.9,3.2,3.2,0,0,1,.23-2.51,4,4,0,0,1,2-1.85,3.22,3.22,0,0,1,2.51-.17A2.53,2.53,0,0,1,66,66.93a3.41,3.41,0,0,1,.15,1A8.57,8.57,0,0,1,66,69.37a5.08,5.08,0,0,1,.71-.69,4,4,0,0,1,.76-.46,2.76,2.76,0,0,1,2.41,0,3,3,0,0,1,1.56,1.94,3.62,3.62,0,0,1-.16,2.73,4.05,4.05,0,0,1-2.07,1.94,3.72,3.72,0,0,1-2.31.27,4.74,4.74,0,0,1-2.22-1.24Z"/><path d="M137.42,4A5.41,5.41,0,0,0,129.94.5L83.77,21.14,142,18.42Z"/><path class="cls-1" d="M69.2,74.79a4.05,4.05,0,0,0,2.07-1.94,3.62,3.62,0,0,0,.16-2.73,3,3,0,0,0-1.56-1.94,2.76,2.76,0,0,0-2.41,0,4,4,0,0,0-.76.46,5.08,5.08,0,0,0-.71.69A8.57,8.57,0,0,0,66.13,68a3.41,3.41,0,0,0-.15-1,2.53,2.53,0,0,0-1.56-1.71,3.22,3.22,0,0,0-2.51.17,4,4,0,0,0-2,1.85,3.2,3.2,0,0,0-.23,2.51,3.07,3.07,0,0,0,.46.9,6.06,6.06,0,0,0,.87.95,3.52,3.52,0,0,0-.92,0,3.38,3.38,0,0,0-.82.25,3.52,3.52,0,0,0-1.85,1.87,3.74,3.74,0,0,0-.12,2.68,2.92,2.92,0,0,0,1.63,1.93,3.2,3.2,0,0,0,2.62-.15,4.47,4.47,0,0,0,1.9-1.61,6.69,6.69,0,0,0,1-2.68l0,.11a6,6,0,0,1-.08,4.33,6.15,6.15,0,0,1-3.16,3l.16.49,9.91-4.43L71.17,77a4.32,4.32,0,0,1-6.46-3l0-.11a4.74,4.74,0,0,0,2.22,1.24A3.72,3.72,0,0,0,69.2,74.79Z"/><path class="cls-1" d="M81.6,55.62A3.34,3.34,0,0,1,84,54.53a3.08,3.08,0,0,1,2.25.7,5,5,0,0,1,1.39,2.39,6,6,0,0,1,1.53-2.53,3.58,3.58,0,0,1,2.3-.91,2.85,2.85,0,0,1,2.35.87,3.32,3.32,0,0,1,.84,2.49,5.65,5.65,0,0,1-.3,1.6,9.65,9.65,0,0,1-.9,1.79c-.27.42-.86,1.23-1.75,2.42s-1.61,2.2-2.15,3A24.52,24.52,0,0,0,88.09,69a11.55,11.55,0,0,0-.86,2.25,11.47,11.47,0,0,0-.72-2.14,20.46,20.46,0,0,0-1.36-2.47c-.52-.85-1.15-1.76-1.88-2.76S82.1,62.26,82,62.08a9.59,9.59,0,0,1-1.13-2.14,4.86,4.86,0,0,1-.25-1.74A3.82,3.82,0,0,1,81.6,55.62Z"/><path class="cls-1" d="M176.37,23.25,176,34.44,113.37,22.63c-3.16-.59-6.38,1.79-7.17,5.29L72.32,179.1c-.79,3.51,1.15,6.86,4.3,7.45l3.37.64-4.56.21c-3.25.16-5.81-2.63-5.71-6.17l1.15-37.75L74.38,28a7.39,7.39,0,0,1,.78-3,6.49,6.49,0,0,1,5.32-3.7l3.29-.15L142,18.42l28.7-1.35C173.91,16.92,176.48,19.7,176.37,23.25Z"/><path class="cls-2" d="M82,62.08c.12.18.55.76,1.29,1.75s1.36,1.91,1.88,2.76a20.46,20.46,0,0,1,1.36,2.47,11.47,11.47,0,0,1,.72,2.14A11.55,11.55,0,0,1,88.09,69a24.52,24.52,0,0,1,1.47-2.57c.54-.83,1.26-1.84,2.15-3s1.48-2,1.75-2.42a9.65,9.65,0,0,0,.9-1.79,5.65,5.65,0,0,0,.3-1.6,3.32,3.32,0,0,0-.84-2.49,2.85,2.85,0,0,0-2.35-.87,3.58,3.58,0,0,0-2.3.91,6,6,0,0,0-1.53,2.53,5,5,0,0,0-1.39-2.39,3.08,3.08,0,0,0-2.25-.7,3.34,3.34,0,0,0-2.4,1.09,3.82,3.82,0,0,0-1,2.58,4.86,4.86,0,0,0,.25,1.74A9.59,9.59,0,0,0,82,62.08Z"/><path d="M240.47,17.71c-.47,1.65-11.26,38.35-40.43,52l-28.71,128c-.78,3.5-4,5.88-7.16,5.28L96.39,190.28,92.51,192A5.41,5.41,0,0,1,85,188.55l-.13-.44L80,187.19l-3.37-.64c-3.15-.59-5.09-3.94-4.3-7.45L106.2,27.92c.79-3.5,4-5.88,7.17-5.29L176,34.44l24.58,4.63c3.41-.51,21.33-4,36.07-23.09Z"/><path class="cls-1" d="M115.72,61.42A10.53,10.53,0,0,1,114.54,59a5.12,5.12,0,0,1-.25-2.08,5.8,5.8,0,0,1-1.14,1.81A11.48,11.48,0,0,1,111,60.54c-.29.21-.71.48-1.28.82-1.64,1-2.58,2-2.81,3a2.8,2.8,0,0,0,.27,2.11,2.34,2.34,0,0,0,1.65,1.12,2.75,2.75,0,0,0,1.81-.27,3.76,3.76,0,0,0,1.5-1.39l0,.1a5.41,5.41,0,0,1-1.91,3.3,4.45,4.45,0,0,1-3.5.71l-.1.46,8.83,1.67.1-.47a4.13,4.13,0,0,1-2.89-1.91,5.07,5.07,0,0,1-.33-3.72l0-.1a3.47,3.47,0,0,0,.79,1.82,2.63,2.63,0,0,0,1.55.9,2.46,2.46,0,0,0,2-.44,3,3,0,0,0,1.17-1.83c.23-1-.2-2.27-1.28-3.77C116.19,62.14,115.9,61.73,115.72,61.42Z"/><path class="cls-1" d="M161.49,153.92a4.14,4.14,0,0,1,2.9,1.91,5.18,5.18,0,0,1,.33,3.72l0,.1a3.39,3.39,0,0,0-.78-1.81,2.6,2.6,0,0,0-1.55-.91,2.54,2.54,0,0,0-2,.43,3,3,0,0,0-1.15,1.84c-.23,1,.19,2.28,1.28,3.77.38.52.66.94.85,1.23a11.39,11.39,0,0,1,1.17,2.4,5.34,5.34,0,0,1,.26,2.09,5.73,5.73,0,0,1,1.14-1.82,11.39,11.39,0,0,1,2.12-1.78c.29-.21.72-.48,1.28-.81,1.65-1,2.59-2,2.82-3a2.82,2.82,0,0,0-.28-2.1,2.32,2.32,0,0,0-1.64-1.13,2.81,2.81,0,0,0-1.81.28,3.75,3.75,0,0,0-1.51,1.38l0-.1a5.41,5.41,0,0,1,1.91-3.3,4.49,4.49,0,0,1,3.5-.71l.1-.46-8.83-1.66Z"/><path class="cls-1" d="M149.82,100.4a35.81,35.81,0,0,1-4-8.1,17.74,17.74,0,0,1-.86-7.07,19.08,19.08,0,0,1-3.86,6.14,39.07,39.07,0,0,1-7.18,6c-1,.69-2.44,1.62-4.34,2.75-5.58,3.37-8.77,6.76-9.54,10.21a9.36,9.36,0,0,0,1,7.13,7.87,7.87,0,0,0,5.56,3.81,9.47,9.47,0,0,0,6.13-.93,12.89,12.89,0,0,0,5.09-4.7l-.07.34c-1.14,5.09-3.29,8.8-6.45,11.16s-7.13,3.15-11.86,2.4l-.35,1.57L149,136.78l.35-1.57q-7-1.53-9.81-6.47t-1.11-12.59l.07-.34a11.47,11.47,0,0,0,2.67,6.14,8.91,8.91,0,0,0,5.23,3.08,8.46,8.46,0,0,0,6.75-1.48,10.06,10.06,0,0,0,3.93-6.22q1.17-5.16-4.32-12.75Q150.75,101.93,149.82,100.4Z"/><path class="cls-1" d="M59.2,44.73a8.36,8.36,0,0,0-1.53.82,8,8,0,0,0-3.42,8.26l.07,0a5.71,5.71,0,0,1,3.09-3.6c2.71-1.26,5.3-.07,6.36,3.11a6.54,6.54,0,0,1-3.21,8.1c-3.27,1.53-6.31-.18-7.71-4.41A12.14,12.14,0,0,1,53,48.44a10.41,10.41,0,0,1,4.11-4.69,12.36,12.36,0,0,1,1.47-.83Zm2.51,9.66c-.77-2.33-2.49-3.15-4.4-2.26A4.34,4.34,0,0,0,55,55.51a2.33,2.33,0,0,0,.09,1.09c.93,2.66,2.74,4.1,4.91,3.09C61.79,58.85,62.48,56.72,61.71,54.39Z"/><path class="cls-2" d="M92,30.93a7.33,7.33,0,0,0-1.66.13,7.64,7.64,0,0,0-6,6.39h.07a5.13,5.13,0,0,1,4-2.11c2.87,0,4.76,2.21,4.55,5.68-.19,3.25-2.38,6.28-5.75,6.33S81.73,44.47,82,39.86a12.59,12.59,0,0,1,3.21-8,9.28,9.28,0,0,1,5.34-2.69,10.06,10.06,0,0,1,1.6-.16ZM90.82,41.18c.14-2.54-1.09-4-3.11-4a3.91,3.91,0,0,0-3.27,2.23,2.18,2.18,0,0,0-.31,1.06c-.12,2.93,1,5.07,3.27,5C89.3,45.46,90.67,43.73,90.82,41.18Z"/><path class="cls-1" d="M123.23,34.6a7.06,7.06,0,0,0-8.62,4.7h.07A4.79,4.79,0,0,1,119,38.16c2.76.63,4.14,3.3,3.27,6.7-.81,3.18-3.51,5.69-6.76,5s-4.79-4.15-3.63-8.67a12.36,12.36,0,0,1,4.65-7.25,8.62,8.62,0,0,1,5.65-1.43,8.79,8.79,0,0,1,1.58.21Zm-3.16,9.9c.64-2.49-.26-4.27-2.2-4.72a3.69,3.69,0,0,0-3.58,1.46,2.31,2.31,0,0,0-.51,1c-.68,2.87,0,5.26,2.17,5.76C117.78,48.4,119.43,47,120.07,44.5Z"/><path class="cls-1" d="M155.51,188.91a6.68,6.68,0,0,0,1.61.26,7.23,7.23,0,0,0,7-5h-.07a4.77,4.77,0,0,1-4.29,1.15c-2.76-.63-4.14-3.29-3.27-6.69.81-3.19,3.51-5.69,6.76-5s4.79,4.15,3.63,8.68a12.37,12.37,0,0,1-4.64,7.24,8.67,8.67,0,0,1-5.66,1.44,9.65,9.65,0,0,1-1.58-.22Zm3.16-9.9c-.64,2.49.26,4.28,2.2,4.72a3.69,3.69,0,0,0,3.58-1.46,2.32,2.32,0,0,0,.51-1c.68-2.88,0-5.26-2.17-5.77C161,175.11,159.31,176.52,158.67,179Z"/></g></g></svg>